# Blender v2.76 (sub 0) OBJ File: 'dcone3.blend'
# www.blender.org
mtllib snow.mtl
o Cone
v 0.172323 0.708612 -0.554909
v 0.171483 2.103578 -0.018720
v 0.556777 0.705974 -0.395707
v 0.716023 0.699606 -0.011358
v 0.556777 0.693239 0.372990
v 0.172323 0.690601 0.532193
v -0.212131 0.693239 0.372990
v -0.371377 0.699606 -0.011358
v -0.212131 0.705974 -0.395707
v 0.173164 -0.703590 -0.050778
vt 0.455818 0.529040
vt 0.493245 1.000000
vt 0.435064 0.529171
vt 0.429220 0.529206
vt 0.438184 0.529146
vt 0.476086 0.528908
vt 0.480937 0.528874
vt 0.471173 0.528935
vt 0.454535 0.529041
vt 0.463729 0.000000
vn -0.872300 0.335400 -0.355900
vn 0.362500 0.334600 -0.869900
vn -0.867700 0.337400 0.365100
vn -0.358000 0.339000 0.870000
vn 0.357900 0.339400 0.869900
vn 0.867400 0.338300 0.365000
vn -0.362600 0.334200 -0.870000
vn 0.872000 0.336300 -0.355700
vn 0.000000 -0.999900 -0.016600
vn -0.870900 -0.327700 -0.366300
vn 0.868800 -0.346100 0.354200
vn -0.868500 -0.347000 0.354100
vn 0.361500 -0.313300 -0.878200
vn 0.871200 -0.326800 -0.366400
vn 0.359100 -0.359900 0.861100
vn -0.361400 -0.313700 -0.878000
vn -0.359000 -0.360200 0.861000
usemtl Material.001
s off
f 8/1/1 2/2/1 9/3/1
f 1/4/2 2/2/2 3/5/2
f 7/6/3 2/2/3 8/1/3
f 6/7/4 2/2/4 7/6/4
f 5/8/5 2/2/5 6/7/5
f 4/9/6 2/2/6 5/8/6
f 9/3/7 2/2/7 1/4/7
f 3/5/8 2/2/8 4/9/8
f 1/4/9 3/5/9 4/9/9 5/8/9 6/7/9 7/6/9 8/1/9 9/3/9
f 9/3/10 10/10/10 8/1/10
f 5/8/11 10/10/11 4/9/11
f 8/1/12 10/10/12 7/6/12
f 3/5/13 10/10/13 1/4/13
f 4/9/14 10/10/14 3/5/14
f 6/7/15 10/10/15 5/8/15
f 1/4/16 10/10/16 9/3/16
f 7/6/17 10/10/17 6/7/17
